<svg width="308" height="718" viewBox="0 0 308 718" fill="none" xmlns="http://www.w3.org/2000/svg">
<g filter="url(#filter0_d)">
<path d="M9 15C9 9.47716 13.4772 5 19 5H289C294.523 5 299 9.47715 299 15V91.6187H9V15Z" fill="#97BF0D"/>
<path d="M9 91.6191H299V695C299 700.523 294.523 705 289 705H19C13.4772 705 9 700.523 9 695V91.6191Z" fill="white"/>
<path d="M118.144 39.834H116.452C116.524 40.266 116.578 40.932 116.578 41.328C116.578 41.976 116.542 42.588 116.506 43.164H113.338C112.654 43.164 111.916 43.128 111.286 43.056V44.586C111.916 44.514 112.654 44.514 113.356 44.514H116.38C115.894 48.222 114.598 50.472 112.816 52.092C112.276 52.614 111.538 53.118 110.962 53.424L112.276 54.486C115.282 52.416 117.154 49.68 117.802 44.514H122.842C122.842 46.44 122.608 50.868 121.924 52.236C121.726 52.686 121.402 52.83 120.88 52.83C120.124 52.83 119.17 52.758 118.198 52.632L118.378 54.126C119.314 54.18 120.358 54.252 121.276 54.252C122.266 54.252 122.842 53.91 123.202 53.154C124.012 51.426 124.228 46.188 124.3 44.46C124.3 44.226 124.336 43.884 124.39 43.578L123.382 43.074C123.076 43.128 122.716 43.164 122.23 43.164H117.946C117.982 42.57 118.018 41.958 118.036 41.31C118.054 40.878 118.09 40.248 118.144 39.834ZM130.87 40.68V42.174C131.32 42.138 131.914 42.12 132.508 42.12H139.78C140.302 42.12 140.932 42.138 141.454 42.174V40.68C140.932 40.752 140.284 40.788 139.78 40.788H132.49C131.914 40.788 131.374 40.734 130.87 40.68ZM128.71 45.198V46.692C129.214 46.656 129.736 46.656 130.276 46.656H135.676C135.622 48.348 135.424 49.86 134.632 51.12C133.93 52.254 132.634 53.298 131.23 53.874L132.562 54.864C134.092 54.072 135.46 52.776 136.108 51.57C136.828 50.238 137.116 48.6 137.17 46.656H142.066C142.498 46.656 143.074 46.674 143.47 46.692V45.198C143.038 45.27 142.444 45.288 142.066 45.288H130.276C129.718 45.288 129.214 45.252 128.71 45.198ZM158.212 39.15L157.24 39.564C157.69 40.194 158.32 41.238 158.662 41.994L159.67 41.544C159.31 40.86 158.644 39.762 158.212 39.15ZM160.498 38.628L159.508 39.042C159.994 39.672 160.57 40.698 160.966 41.436L161.974 41.004C161.596 40.32 160.93 39.24 160.498 38.628ZM147.754 42.192V43.794C148.168 43.776 149.05 43.74 149.734 43.74H158.356V52.236H149.518C148.762 52.236 147.97 52.182 147.52 52.128V53.766C148.006 53.73 148.816 53.694 149.554 53.694H158.356C158.338 54.126 158.32 54.504 158.32 54.702H159.94C159.922 54.414 159.868 53.604 159.868 52.956V43.668C159.868 43.236 159.904 42.678 159.922 42.264C159.562 42.282 159.022 42.3 158.572 42.3H149.716C149.14 42.3 148.348 42.264 147.754 42.192ZM176.968 40.338H175.276C175.33 40.788 175.366 41.292 175.366 41.904V44.748C175.366 48.15 175.15 49.608 173.872 51.102C172.756 52.362 171.226 53.082 169.57 53.496L170.74 54.738C172.054 54.288 173.854 53.514 175.024 52.11C176.32 50.562 176.914 49.14 176.914 44.82V41.904C176.914 41.292 176.932 40.788 176.968 40.338ZM168.616 40.482H166.978C167.014 40.824 167.05 41.454 167.05 41.778V47.772C167.05 48.312 166.996 48.888 166.96 49.158H168.616C168.58 48.834 168.544 48.24 168.544 47.79V41.778C168.544 41.346 168.58 40.824 168.616 40.482ZM182.836 46.206V47.97C183.394 47.916 184.348 47.88 185.338 47.88H195.22C196.03 47.88 196.786 47.952 197.146 47.97V46.206C196.75 46.242 196.102 46.296 195.202 46.296H185.338C184.33 46.296 183.376 46.242 182.836 46.206Z" fill="white"/>
<path d="M43.096 126.004C43.138 126.228 43.236 126.69 43.348 127.278C42.144 127.474 41.066 127.628 40.576 127.684C40.142 127.74 39.722 127.768 39.274 127.782L39.652 129.714C40.128 129.588 40.492 129.518 40.94 129.42C41.374 129.35 42.452 129.168 43.684 128.972C43.81 129.686 43.964 130.47 44.104 131.226C42.69 131.45 41.388 131.66 40.744 131.744C40.296 131.8 39.666 131.884 39.288 131.898L39.68 133.774C40.002 133.69 40.478 133.592 41.08 133.48C41.682 133.368 42.998 133.144 44.426 132.906C44.65 134.082 44.832 135.048 44.902 135.454C44.986 135.86 45.028 136.35 45.098 136.868L47.114 136.504C46.988 136.056 46.848 135.552 46.75 135.132C46.666 134.698 46.47 133.76 46.246 132.612C47.478 132.416 48.612 132.234 49.284 132.122C49.816 132.038 50.39 131.94 50.768 131.912L50.39 130.064C50.026 130.176 49.508 130.288 48.962 130.4C48.332 130.526 47.184 130.722 45.924 130.932C45.77 130.162 45.63 129.392 45.49 128.692C46.652 128.51 47.716 128.342 48.29 128.244C48.71 128.188 49.27 128.104 49.578 128.076L49.242 126.242C48.906 126.34 48.374 126.452 47.926 126.536C47.422 126.634 46.358 126.802 45.168 126.998C45.056 126.368 44.972 125.906 44.944 125.71C44.874 125.374 44.832 124.898 44.79 124.618L42.816 124.94C42.914 125.276 43.012 125.598 43.096 126.004ZM63.242 125.136H61.128C61.184 125.528 61.212 125.976 61.212 126.536V129.196C61.212 131.38 61.03 132.43 60.064 133.48C59.224 134.39 58.09 134.922 56.704 135.244L58.16 136.784C59.182 136.462 60.638 135.776 61.562 134.768C62.598 133.62 63.186 132.318 63.186 129.308V126.536C63.186 125.976 63.214 125.528 63.242 125.136ZM56.746 125.248H54.73C54.772 125.57 54.786 126.06 54.786 126.326V131.044C54.786 131.464 54.73 132.01 54.716 132.276H56.746C56.718 131.954 56.704 131.408 56.704 131.058V126.326C56.704 125.878 56.718 125.57 56.746 125.248ZM72.804 124.772L70.956 124.618C70.928 125.122 70.83 125.668 70.676 126.228C70.452 126.228 70.214 126.228 70.004 126.228C69.29 126.228 68.254 126.172 67.54 126.06V127.698C68.31 127.754 69.332 127.782 69.906 127.782C69.962 127.782 70.018 127.782 70.088 127.782C69.458 129.042 68.464 130.288 66.994 131.646L68.492 132.766C68.968 132.15 69.374 131.646 69.794 131.226C70.326 130.708 71.194 130.26 71.978 130.26C72.37 130.26 72.748 130.386 72.958 130.736C71.362 131.562 69.682 132.682 69.682 134.474C69.682 136.28 71.306 136.812 73.504 136.812C74.82 136.812 76.542 136.7 77.466 136.574L77.522 134.768C76.29 135.006 74.736 135.16 73.546 135.16C72.174 135.16 71.516 134.95 71.516 134.18C71.516 133.48 72.076 132.934 73.126 132.332C73.112 132.948 73.098 133.62 73.056 134.04H74.736C74.722 133.396 74.694 132.36 74.68 131.576C75.534 131.184 76.332 130.876 76.962 130.624C77.438 130.442 78.18 130.162 78.628 130.036L77.928 128.412C77.41 128.678 76.92 128.902 76.374 129.14C75.8 129.392 75.212 129.63 74.484 129.966C74.176 129.252 73.476 128.888 72.622 128.888C72.16 128.888 71.404 129 71.04 129.168C71.32 128.762 71.6 128.258 71.838 127.74C73.35 127.698 75.072 127.586 76.402 127.39L76.416 125.766C75.184 125.976 73.784 126.102 72.454 126.172C72.636 125.584 72.734 125.122 72.804 124.772ZM86.454 130.75V129.364H88.176V130.568V130.75H86.454ZM91.564 129.364V130.75H89.828V130.582V129.364H91.564ZM93.16 132.094V128.006H89.828V127.026H93.538V125.514H89.828V124.24H88.176V125.514H84.76C84.886 125.206 85.012 124.912 85.138 124.618L83.598 124.114C82.842 126.102 81.54 128.076 80.21 129.336C80.49 129.742 80.938 130.638 81.092 131.044C81.484 130.652 81.862 130.204 82.24 129.728V137.246H83.822V127.348C84.13 126.816 84.41 126.284 84.662 125.738V127.026H88.176V128.006H84.956V132.094H88.078C87.994 132.668 87.84 133.186 87.56 133.69C87.042 133.27 86.594 132.794 86.258 132.248L84.9 132.668C85.376 133.466 85.936 134.18 86.622 134.754C86.02 135.216 85.194 135.58 84.074 135.832C84.41 136.182 84.9 136.854 85.11 137.218C86.356 136.854 87.308 136.336 87.98 135.72C89.282 136.462 90.878 136.952 92.768 137.19C92.978 136.756 93.412 136.07 93.762 135.706C91.872 135.538 90.262 135.146 88.974 134.53C89.394 133.788 89.632 132.962 89.744 132.094H93.16ZM96.002 130.078L96.73 131.898C97.92 131.394 100.72 130.232 102.344 130.232C103.562 130.232 104.346 130.96 104.346 132.01C104.346 133.914 101.994 134.768 98.788 134.852L99.53 136.574C103.982 136.294 106.208 134.572 106.208 132.038C106.208 129.924 104.724 128.608 102.512 128.608C100.818 128.608 98.438 129.406 97.486 129.7C97.066 129.826 96.422 129.994 96.002 130.078ZM108.297 126.368L108.479 128.286C110.103 127.936 112.959 127.628 114.275 127.488C113.337 128.202 112.203 129.798 112.203 131.814C112.203 134.838 114.975 136.42 117.901 136.616L118.559 134.698C116.193 134.572 114.037 133.732 114.037 131.436C114.037 129.77 115.297 127.95 116.991 127.502C117.733 127.334 118.937 127.334 119.693 127.32L119.679 125.528C118.699 125.556 117.159 125.654 115.717 125.766C113.155 125.99 110.845 126.2 109.683 126.298C109.403 126.326 108.857 126.354 108.297 126.368Z" fill="#95856F"/>
<path d="M46.246 424.786H44.174C44.216 425.024 44.286 425.64 44.286 426.004V427.124H40.73C40.296 427.124 39.806 427.068 39.386 427.026V428.874C39.778 428.832 40.31 428.818 40.73 428.818H44.286V428.832C44.286 429.49 44.286 433.928 44.272 434.446C44.258 434.81 44.132 434.95 43.768 434.95C43.418 434.95 42.802 434.894 42.2 434.782L42.382 436.518C43.082 436.616 43.908 436.644 44.65 436.644C45.644 436.644 46.12 436.14 46.12 435.328V428.818H49.382C49.774 428.818 50.32 428.832 50.754 428.86V427.026C50.376 427.082 49.774 427.124 49.368 427.124H46.12V426.004C46.12 425.654 46.204 424.982 46.246 424.786ZM42.956 430.806L41.36 430.064C40.786 431.254 39.666 432.794 38.728 433.676L40.254 434.712C41.01 433.886 42.312 432.052 42.956 430.806ZM48.962 430.022L47.436 430.848C48.122 431.716 49.116 433.41 49.718 434.6L51.356 433.704C50.796 432.682 49.676 430.918 48.962 430.022ZM53.288 429.518V431.716C53.806 431.674 54.744 431.646 55.542 431.646H63.06C63.648 431.646 64.362 431.702 64.698 431.716V429.518C64.334 429.546 63.718 429.602 63.06 429.602H55.542C54.814 429.602 53.792 429.56 53.288 429.518ZM73.3462 425.444L71.1202 424.982C71.0642 425.458 70.9802 425.892 70.7842 426.606C70.3782 428.062 69.1742 431.898 68.3622 433.97C68.2362 433.97 68.0962 433.984 67.9842 433.984C67.5222 433.998 66.9202 433.998 66.4442 433.998L66.7662 436.042C67.2142 435.986 67.7322 435.916 68.0822 435.874C69.8462 435.692 74.0882 435.244 76.3562 434.978C76.6222 435.58 76.8462 436.154 77.0282 436.63L78.9182 435.79C78.2742 434.222 76.8462 431.478 75.8522 429.966L74.1022 430.68C74.5642 431.296 75.0822 432.234 75.5722 433.242C74.1582 433.41 72.1702 433.634 70.4622 433.802C71.1622 431.926 72.2962 428.37 72.7442 426.998C72.9542 426.382 73.1642 425.864 73.3462 425.444ZM90.7902 425.934C90.7902 425.486 91.1542 425.122 91.6022 425.122C92.0502 425.122 92.4142 425.486 92.4142 425.934C92.4142 426.368 92.0502 426.732 91.6022 426.732C91.1542 426.732 90.7902 426.368 90.7902 425.934ZM89.9222 425.934C89.9222 426.844 90.6782 427.6 91.6022 427.6C92.5262 427.6 93.2822 426.844 93.2822 425.934C93.2822 425.01 92.5262 424.254 91.6022 424.254C90.6782 424.254 89.9222 425.01 89.9222 425.934ZM82.2642 431.646C81.7882 432.878 80.9622 434.39 80.0802 435.538L82.0402 436.364C82.7822 435.314 83.6082 433.718 84.1122 432.36C84.6022 431.058 85.1062 429.126 85.3022 428.146C85.3582 427.838 85.5122 427.152 85.6382 426.746L83.5942 426.326C83.4262 428.104 82.8942 430.078 82.2642 431.646ZM89.1802 431.352C89.7402 432.864 90.2442 434.628 90.6362 436.294L92.7082 435.622C92.3162 434.236 91.5742 431.996 91.0842 430.736C90.5522 429.378 89.5862 427.222 89.0122 426.144L87.1502 426.746C87.7382 427.81 88.6482 429.882 89.1802 431.352ZM94.8642 429.518V431.716C95.3822 431.674 96.3202 431.646 97.1182 431.646H104.636C105.224 431.646 105.938 431.702 106.274 431.716V429.518C105.91 429.546 105.294 429.602 104.636 429.602H97.1182C96.3902 429.602 95.3682 429.56 94.8642 429.518ZM110.39 425.262V427.068C110.824 427.04 111.412 427.012 111.902 427.012H117.516C118.006 427.012 118.552 427.04 119.028 427.068V425.262C118.552 425.332 117.992 425.36 117.516 425.36H111.888C111.426 425.36 110.852 425.332 110.39 425.262ZM108.766 428.846V430.68C109.158 430.652 109.69 430.624 110.11 430.624H113.96C113.904 431.8 113.666 432.85 113.092 433.718C112.532 434.53 111.552 435.342 110.558 435.72L112.196 436.91C113.442 436.28 114.52 435.188 115.01 434.222C115.514 433.242 115.822 432.066 115.906 430.624H119.28C119.672 430.624 120.204 430.638 120.554 430.666V428.846C120.19 428.902 119.574 428.93 119.28 428.93H110.11C109.676 428.93 109.186 428.888 108.766 428.846ZM122.24 432.01L123.066 433.662C124.284 433.284 125.852 432.64 127.084 432.024V435.72C127.084 436.21 127.042 436.952 127.014 437.232H129.086C129.002 436.952 128.988 436.21 128.988 435.72V430.918C130.234 430.092 131.466 429.098 132.124 428.37L130.738 427.012C130.024 427.922 128.61 429.182 127.252 430.008C126.146 430.68 124.06 431.618 122.24 432.01ZM135.708 426.396L135.89 428.314C137.514 427.964 140.37 427.656 141.686 427.516C140.734 428.23 139.6 429.826 139.6 431.842C139.6 434.88 142.372 436.448 145.312 436.644L145.97 434.726C143.59 434.6 141.434 433.774 141.434 431.464C141.434 429.798 142.708 427.992 144.402 427.544C145.144 427.362 146.348 427.362 147.104 427.348L147.09 425.556C146.096 425.598 144.57 425.682 143.128 425.808C140.566 426.018 138.256 426.228 137.08 426.326C136.814 426.354 136.268 426.382 135.708 426.396ZM145.102 428.72L144.066 429.154C144.514 429.784 144.808 430.33 145.158 431.1L146.222 430.624C145.956 430.078 145.452 429.224 145.102 428.72ZM146.67 428.076L145.648 428.552C146.096 429.168 146.418 429.686 146.796 430.442L147.846 429.938C147.552 429.392 147.02 428.566 146.67 428.076Z" fill="#95856F"/>
<path d="M47.926 176.298L46.708 176.802C47.226 177.516 47.576 178.202 47.982 179.084L49.242 178.538C48.934 177.894 48.318 176.872 47.926 176.298ZM49.802 175.528L48.598 176.074C49.116 176.774 49.494 177.418 49.942 178.3L51.16 177.712C50.838 177.082 50.208 176.088 49.802 175.528ZM38.49 182.01L40.17 183.746C40.422 183.382 40.758 182.892 41.08 182.444C41.64 181.688 42.634 180.302 43.18 179.602C43.586 179.098 43.88 179.07 44.328 179.518C44.832 180.036 46.078 181.394 46.89 182.36C47.716 183.326 48.906 184.768 49.844 185.93L51.384 184.278C50.306 183.13 48.878 181.576 47.94 180.582C47.1 179.672 46.022 178.552 45.084 177.67C43.992 176.648 43.166 176.802 42.34 177.782C41.374 178.93 40.282 180.302 39.652 180.946C39.218 181.366 38.91 181.674 38.49 182.01ZM59.042 185.692L60.218 186.658C60.344 186.546 60.512 186.406 60.82 186.238C62.388 185.44 64.404 183.928 65.566 182.416L64.488 180.876C63.55 182.234 62.164 183.34 61.03 183.83V176.508C61.03 175.878 61.114 175.332 61.128 175.29H59.042C59.056 175.332 59.154 175.864 59.154 176.494V184.656C59.154 185.034 59.098 185.426 59.042 185.692ZM52.56 185.482L54.268 186.616C55.458 185.552 56.34 184.18 56.76 182.598C57.138 181.184 57.18 178.23 57.18 176.578C57.18 175.99 57.264 175.374 57.278 175.304H55.22C55.304 175.654 55.346 176.032 55.346 176.592C55.346 178.286 55.332 180.932 54.94 182.136C54.548 183.326 53.792 184.614 52.56 185.482ZM71.096 176.004C71.138 176.228 71.236 176.69 71.348 177.278C70.144 177.474 69.066 177.628 68.576 177.684C68.142 177.74 67.722 177.768 67.274 177.782L67.652 179.714C68.128 179.588 68.492 179.518 68.94 179.42C69.374 179.35 70.452 179.168 71.684 178.972C71.81 179.686 71.964 180.47 72.104 181.226C70.69 181.45 69.388 181.66 68.744 181.744C68.296 181.8 67.666 181.884 67.288 181.898L67.68 183.774C68.002 183.69 68.478 183.592 69.08 183.48C69.682 183.368 70.998 183.144 72.426 182.906C72.65 184.082 72.832 185.048 72.902 185.454C72.986 185.86 73.028 186.35 73.098 186.868L75.114 186.504C74.988 186.056 74.848 185.552 74.75 185.132C74.666 184.698 74.47 183.76 74.246 182.612C75.478 182.416 76.612 182.234 77.284 182.122C77.816 182.038 78.39 181.94 78.768 181.912L78.39 180.064C78.026 180.176 77.508 180.288 76.962 180.4C76.332 180.526 75.184 180.722 73.924 180.932C73.77 180.162 73.63 179.392 73.49 178.692C74.652 178.51 75.716 178.342 76.29 178.244C76.71 178.188 77.27 178.104 77.578 178.076L77.242 176.242C76.906 176.34 76.374 176.452 75.926 176.536C75.422 176.634 74.358 176.802 73.168 176.998C73.056 176.368 72.972 175.906 72.944 175.71C72.874 175.374 72.832 174.898 72.79 174.618L70.816 174.94C70.914 175.276 71.012 175.598 71.096 176.004ZM90.626 179.322L89.268 178.664C89.1 178.762 88.526 178.818 88.232 178.818H84.648C84.27 178.818 83.626 178.776 83.262 178.734V180.582C83.668 180.554 84.214 180.512 84.662 180.512H88.442C88.4 181.296 88.092 183.284 87.896 184.474H83.36C82.87 184.474 82.352 184.446 81.974 184.404V186.224C82.506 186.196 82.856 186.182 83.36 186.182H90.724C91.102 186.182 91.788 186.21 92.068 186.224V184.418C91.704 184.46 91.06 184.474 90.696 184.474H89.8C90.01 183.144 90.374 180.736 90.486 179.91C90.514 179.77 90.556 179.504 90.626 179.322ZM95.288 179.518V181.716C95.806 181.674 96.744 181.646 97.542 181.646H105.06C105.648 181.646 106.362 181.702 106.698 181.716V179.518C106.334 179.546 105.718 179.602 105.06 179.602H97.542C96.814 179.602 95.792 179.56 95.288 179.518ZM117.792 174.198L116.644 174.674C116.91 175.08 117.19 175.57 117.428 176.032C117.176 176.06 116.938 176.06 116.77 176.06H110.288C109.826 176.06 109.028 176.004 108.622 175.948V177.922C108.986 177.894 109.644 177.866 110.288 177.866H116.798C116.616 179.07 116.084 180.652 115.16 181.814C114.026 183.242 112.444 184.46 109.672 185.104L111.198 186.784C113.704 185.972 115.566 184.586 116.826 182.906C118.002 181.352 118.604 179.182 118.94 177.81C119.01 177.516 119.108 177.11 119.248 176.844L118.352 176.256L118.87 176.046C118.618 175.542 118.156 174.73 117.792 174.198ZM119.752 173.848L118.59 174.31C118.968 174.828 119.402 175.626 119.71 176.2L120.872 175.696C120.606 175.206 120.102 174.352 119.752 173.848ZM127.97 174.772L126.122 174.618C126.094 175.122 125.996 175.668 125.842 176.228C125.618 176.228 125.38 176.228 125.17 176.228C124.456 176.228 123.42 176.172 122.706 176.06V177.698C123.476 177.754 124.498 177.782 125.072 177.782C125.128 177.782 125.184 177.782 125.254 177.782C124.624 179.042 123.63 180.288 122.16 181.646L123.658 182.766C124.134 182.15 124.54 181.646 124.96 181.226C125.492 180.708 126.36 180.26 127.144 180.26C127.536 180.26 127.914 180.386 128.124 180.736C126.528 181.562 124.848 182.682 124.848 184.474C124.848 186.28 126.472 186.812 128.67 186.812C129.986 186.812 131.708 186.7 132.632 186.574L132.688 184.768C131.456 185.006 129.902 185.16 128.712 185.16C127.34 185.16 126.682 184.95 126.682 184.18C126.682 183.48 127.242 182.934 128.292 182.332C128.278 182.948 128.264 183.62 128.222 184.04H129.902C129.888 183.396 129.86 182.36 129.846 181.576C130.7 181.184 131.498 180.876 132.128 180.624C132.604 180.442 133.346 180.162 133.794 180.036L133.094 178.412C132.576 178.678 132.086 178.902 131.54 179.14C130.966 179.392 130.378 179.63 129.65 179.966C129.342 179.252 128.642 178.888 127.788 178.888C127.326 178.888 126.57 179 126.206 179.168C126.486 178.762 126.766 178.258 127.004 177.74C128.516 177.698 130.238 177.586 131.568 177.39L131.582 175.766C130.35 175.976 128.95 176.102 127.62 176.172C127.802 175.584 127.9 175.122 127.97 174.772ZM141.62 180.75V179.364H143.342V180.568V180.75H141.62ZM146.73 179.364V180.75H144.994V180.582V179.364H146.73ZM148.326 182.094V178.006H144.994V177.026H148.704V175.514H144.994V174.24H143.342V175.514H139.926C140.052 175.206 140.178 174.912 140.304 174.618L138.764 174.114C138.008 176.102 136.706 178.076 135.376 179.336C135.656 179.742 136.104 180.638 136.258 181.044C136.65 180.652 137.028 180.204 137.406 179.728V187.246H138.988V177.348C139.296 176.816 139.576 176.284 139.828 175.738V177.026H143.342V178.006H140.122V182.094H143.244C143.16 182.668 143.006 183.186 142.726 183.69C142.208 183.27 141.76 182.794 141.424 182.248L140.066 182.668C140.542 183.466 141.102 184.18 141.788 184.754C141.186 185.216 140.36 185.58 139.24 185.832C139.576 186.182 140.066 186.854 140.276 187.218C141.522 186.854 142.474 186.336 143.146 185.72C144.448 186.462 146.044 186.952 147.934 187.19C148.144 186.756 148.578 186.07 148.928 185.706C147.038 185.538 145.428 185.146 144.14 184.53C144.56 183.788 144.798 182.962 144.91 182.094H148.326ZM151.168 180.078L151.896 181.898C153.086 181.394 155.886 180.232 157.51 180.232C158.728 180.232 159.512 180.96 159.512 182.01C159.512 183.914 157.16 184.768 153.954 184.852L154.696 186.574C159.148 186.294 161.374 184.572 161.374 182.038C161.374 179.924 159.89 178.608 157.678 178.608C155.984 178.608 153.604 179.406 152.652 179.7C152.232 179.826 151.588 179.994 151.168 180.078ZM163.463 176.368L163.645 178.286C165.269 177.936 168.125 177.628 169.441 177.488C168.503 178.202 167.369 179.798 167.369 181.814C167.369 184.838 170.141 186.42 173.067 186.616L173.725 184.698C171.359 184.572 169.203 183.732 169.203 181.436C169.203 179.77 170.463 177.95 172.157 177.502C172.899 177.334 174.103 177.334 174.859 177.32L174.845 175.528C173.865 175.556 172.325 175.654 170.883 175.766C168.321 175.99 166.011 176.2 164.849 176.298C164.569 176.326 164.023 176.354 163.463 176.368Z" fill="#95856F"/>
<path d="M44.104 474.632H42.172C42.214 474.884 42.27 475.57 42.27 475.864C42.27 476.102 42.27 476.508 42.256 476.998C41.976 477.012 41.696 477.026 41.444 477.026C40.94 477.026 40.338 477.012 39.512 476.914L39.54 478.608C40.016 478.664 40.562 478.678 41.5 478.678C41.724 478.678 41.976 478.664 42.242 478.65C42.242 479.042 42.242 479.434 42.242 479.826C42.242 480.148 42.242 480.484 42.256 480.82C40.534 481.562 39.134 482.836 39.134 484.054C39.134 485.538 41.052 486.714 42.41 486.714C43.334 486.714 43.95 486.252 43.95 484.516C43.95 484.04 43.922 482.948 43.894 481.842C44.748 481.59 45.658 481.45 46.526 481.45C47.744 481.45 48.584 482.01 48.584 482.962C48.584 483.984 47.688 484.544 46.554 484.754C46.064 484.838 45.462 484.852 44.832 484.852L45.476 486.658C46.05 486.616 46.666 486.574 47.31 486.434C49.536 485.874 50.404 484.628 50.404 482.976C50.404 481.044 48.71 479.924 46.554 479.924C45.784 479.924 44.818 480.05 43.866 480.288C43.866 480.106 43.866 479.938 43.866 479.77C43.866 479.364 43.866 478.93 43.88 478.51C44.79 478.398 45.756 478.258 46.554 478.076L46.512 476.34C45.784 476.55 44.86 476.732 43.936 476.844C43.95 476.494 43.964 476.158 43.978 475.85C44.006 475.486 44.062 474.884 44.104 474.632ZM48.094 476.144L47.324 477.502C48.192 477.922 50.026 478.972 50.698 479.546L51.538 478.118C50.796 477.586 49.172 476.662 48.094 476.144ZM40.856 483.984C40.856 483.494 41.43 482.92 42.284 482.458C42.312 483.214 42.326 483.858 42.326 484.208C42.326 484.684 42.13 484.796 41.878 484.796C41.514 484.796 40.856 484.418 40.856 483.984ZM54.128 487.008C54.786 485.65 55.5 484.012 56.06 482.514L54.73 481.576C54.086 483.2 53.218 484.978 52.616 486.07L54.128 487.008ZM55.682 479.28C55.122 478.944 54.03 478.412 53.302 478.076L52.392 479.308C53.12 479.714 54.198 480.302 54.702 480.666L55.682 479.28ZM61.1 477.698H60.176V476.41H61.1V477.698ZM63.424 480.526C63.382 480.554 63.326 480.554 63.2 480.554H62.57C62.332 480.554 62.304 480.54 62.304 480.26V479.14H63.424V480.526ZM57.964 485.188V484.166H63.424V485.188H57.964ZM58.986 479.14V479.476C58.986 480.05 58.818 480.694 57.964 481.24V479.14H58.986ZM63.382 481.856H63.424V482.766H57.964V481.786C58.188 481.982 58.426 482.206 58.524 482.346C59.91 481.618 60.246 480.498 60.246 479.504V479.14H61.044V480.302C61.044 481.478 61.296 481.856 62.374 481.856H63.382ZM65.384 476.41V474.898H56.102V475.64C55.57 475.276 54.492 474.744 53.792 474.366L52.854 475.584C53.568 476.018 54.618 476.634 55.122 477.012L56.102 475.668V476.41H58.72V477.698H56.466V487.218H57.964V486.616H63.424V487.204H65.006V477.698H62.584V476.41H65.384ZM70.62 474.842L68.87 475.556C69.5 477.04 70.172 478.538 70.816 479.728C69.472 480.722 68.492 481.884 68.492 483.424C68.492 485.832 70.606 486.602 73.392 486.602C75.212 486.602 76.696 486.462 77.886 486.252L77.914 484.236C76.668 484.544 74.778 484.754 73.336 484.754C71.39 484.754 70.424 484.222 70.424 483.214C70.424 482.234 71.208 481.436 72.37 480.666C73.644 479.84 75.408 479.028 76.276 478.594C76.794 478.328 77.242 478.09 77.662 477.838L76.696 476.214C76.332 476.522 75.926 476.76 75.394 477.068C74.736 477.446 73.518 478.048 72.37 478.72C71.81 477.642 71.152 476.298 70.62 474.842ZM80.574 479.644V481.45H93.454V479.644H80.574ZM94.938 482.332C94.826 483.508 94.63 484.754 94.224 485.58C94.56 485.706 95.162 485.972 95.442 486.168C95.834 485.272 96.142 483.886 96.268 482.556L94.938 482.332ZM98.018 482.626C98.326 483.424 98.592 484.46 98.662 485.146L99.894 484.74C99.81 484.068 99.516 483.046 99.18 482.276L98.018 482.626ZM105.144 482.906H102.302V481.912H105.144V482.906ZM102.302 485.272V484.222H105.144V485.272H102.302ZM103.394 476.928H104.724C104.458 477.334 104.164 477.74 103.856 478.118H103.394V476.928ZM107.51 479.532V478.118H105.718C106.404 477.138 106.95 476.06 107.398 474.884L105.942 474.422C105.704 475.094 105.41 475.738 105.06 476.368V475.542H103.394V474.156H101.854V475.542H99.936V476.928H101.854V478.118H99.488V479.532H102.498C101.742 480.204 100.902 480.792 99.978 481.296C99.754 480.526 99.278 479.476 98.802 478.65L97.626 479.14C97.78 479.42 97.92 479.728 98.06 480.036L96.856 480.106C97.738 478.986 98.69 477.6 99.46 476.424L98.102 475.794C97.78 476.48 97.332 477.278 96.842 478.062C96.716 477.894 96.562 477.698 96.394 477.516C96.912 476.732 97.486 475.626 97.976 474.66L96.534 474.156C96.31 474.87 95.918 475.808 95.526 476.578C95.414 476.48 95.302 476.382 95.204 476.284L94.392 477.404C94.952 477.978 95.596 478.734 95.988 479.364C95.778 479.658 95.568 479.938 95.358 480.19L94.35 480.246L94.518 481.688L96.464 481.534V487.218H97.892V481.422L98.578 481.366C98.676 481.66 98.746 481.926 98.788 482.15L99.208 481.954C99.516 482.262 99.866 482.668 100.02 482.948C100.286 482.822 100.538 482.682 100.79 482.542V487.204H102.302V486.644H105.144V487.218H106.754V480.554H103.59C103.954 480.232 104.29 479.882 104.612 479.532H107.51ZM114.272 476.214V478.006C116.036 478.174 118.57 478.16 120.292 478.006V476.2C118.78 476.382 115.994 476.452 114.272 476.214ZM115.392 482.192L113.782 482.038C113.628 482.752 113.544 483.312 113.544 483.858C113.544 485.3 114.706 486.154 117.114 486.154C118.696 486.154 119.816 486.056 120.726 485.888L120.698 483.998C119.466 484.25 118.43 484.362 117.184 484.362C115.756 484.362 115.224 483.984 115.224 483.368C115.224 482.99 115.28 482.654 115.392 482.192ZM112.116 475.276L110.156 475.108C110.142 475.556 110.058 476.088 110.016 476.48C109.862 477.558 109.428 479.924 109.428 482.024C109.428 483.928 109.694 485.636 109.974 486.602L111.598 486.49C111.584 486.294 111.57 486.07 111.57 485.916C111.57 485.776 111.598 485.468 111.64 485.258C111.794 484.516 112.256 482.99 112.648 481.828L111.78 481.142C111.584 481.604 111.36 482.094 111.15 482.57C111.108 482.29 111.094 481.926 111.094 481.66C111.094 480.26 111.584 477.46 111.766 476.522C111.822 476.27 112.004 475.57 112.116 475.276Z" fill="#95856F"/>
<path d="M48.626 224.198L47.478 224.674C47.744 225.08 48.024 225.57 48.262 226.032C48.01 226.06 47.772 226.06 47.604 226.06H41.122C40.66 226.06 39.862 226.004 39.456 225.948V227.922C39.82 227.894 40.478 227.866 41.122 227.866H47.632C47.45 229.07 46.918 230.652 45.994 231.814C44.86 233.242 43.278 234.46 40.506 235.104L42.032 236.784C44.538 235.972 46.4 234.586 47.66 232.906C48.836 231.352 49.438 229.182 49.774 227.81C49.844 227.516 49.942 227.11 50.082 226.844L49.186 226.256L49.704 226.046C49.452 225.542 48.99 224.73 48.626 224.198ZM50.586 223.848L49.424 224.31C49.802 224.828 50.236 225.626 50.544 226.2L51.706 225.696C51.44 225.206 50.936 224.352 50.586 223.848ZM59.042 235.692L60.218 236.658C60.344 236.546 60.512 236.406 60.82 236.238C62.388 235.44 64.404 233.928 65.566 232.416L64.488 230.876C63.55 232.234 62.164 233.34 61.03 233.83V226.508C61.03 225.878 61.114 225.332 61.128 225.29H59.042C59.056 225.332 59.154 225.864 59.154 226.494V234.656C59.154 235.034 59.098 235.426 59.042 235.692ZM52.56 235.482L54.268 236.616C55.458 235.552 56.34 234.18 56.76 232.598C57.138 231.184 57.18 228.23 57.18 226.578C57.18 225.99 57.264 225.374 57.278 225.304H55.22C55.304 225.654 55.346 226.032 55.346 226.592C55.346 228.286 55.332 230.932 54.94 232.136C54.548 233.326 53.792 234.614 52.56 235.482ZM76.472 229.812V229.35H77.508C78.25 229.35 78.74 229.364 79.048 229.392V227.53C78.67 227.6 78.25 227.628 77.508 227.628H76.472V226.158C76.472 225.598 76.528 225.136 76.57 224.856H74.568C74.61 225.136 74.652 225.598 74.652 226.158V227.628H71.334V226.242C71.334 225.696 71.376 225.248 71.418 224.982H69.43C69.472 225.402 69.514 225.836 69.514 226.242V227.628H68.324C67.624 227.628 67.05 227.544 66.812 227.502V229.406C67.12 229.378 67.624 229.35 68.324 229.35H69.514V231.254C69.514 231.884 69.472 232.444 69.43 232.724H71.39C71.376 232.444 71.334 231.87 71.334 231.254V229.35H74.652V229.882C74.652 233.326 73.462 234.53 70.76 235.468L72.258 236.882C75.632 235.398 76.472 233.284 76.472 229.812ZM83.374 225.36L82.058 226.76C83.08 227.474 84.83 229 85.558 229.784L86.986 228.328C86.174 227.474 84.354 226.018 83.374 225.36ZM81.624 234.684L82.8 236.532C84.774 236.196 86.58 235.412 87.994 234.558C90.248 233.2 92.11 231.268 93.174 229.378L92.082 227.404C91.2 229.294 89.38 231.436 86.986 232.85C85.628 233.662 83.808 234.376 81.624 234.684ZM100.804 224.772L98.956 224.618C98.928 225.122 98.83 225.668 98.676 226.228C98.452 226.228 98.214 226.228 98.004 226.228C97.29 226.228 96.254 226.172 95.54 226.06V227.698C96.31 227.754 97.332 227.782 97.906 227.782C97.962 227.782 98.018 227.782 98.088 227.782C97.458 229.042 96.464 230.288 94.994 231.646L96.492 232.766C96.968 232.15 97.374 231.646 97.794 231.226C98.326 230.708 99.194 230.26 99.978 230.26C100.37 230.26 100.748 230.386 100.958 230.736C99.362 231.562 97.682 232.682 97.682 234.474C97.682 236.28 99.306 236.812 101.504 236.812C102.82 236.812 104.542 236.7 105.466 236.574L105.522 234.768C104.29 235.006 102.736 235.16 101.546 235.16C100.174 235.16 99.516 234.95 99.516 234.18C99.516 233.48 100.076 232.934 101.126 232.332C101.112 232.948 101.098 233.62 101.056 234.04H102.736C102.722 233.396 102.694 232.36 102.68 231.576C103.534 231.184 104.332 230.876 104.962 230.624C105.438 230.442 106.18 230.162 106.628 230.036L105.928 228.412C105.41 228.678 104.92 228.902 104.374 229.14C103.8 229.392 103.212 229.63 102.484 229.966C102.176 229.252 101.476 228.888 100.622 228.888C100.16 228.888 99.404 229 99.04 229.168C99.32 228.762 99.6 228.258 99.838 227.74C101.35 227.698 103.072 227.586 104.402 227.39L104.416 225.766C103.184 225.976 101.784 226.102 100.454 226.172C100.636 225.584 100.734 225.122 100.804 224.772ZM114.454 230.75V229.364H116.176V230.568V230.75H114.454ZM119.564 229.364V230.75H117.828V230.582V229.364H119.564ZM121.16 232.094V228.006H117.828V227.026H121.538V225.514H117.828V224.24H116.176V225.514H112.76C112.886 225.206 113.012 224.912 113.138 224.618L111.598 224.114C110.842 226.102 109.54 228.076 108.21 229.336C108.49 229.742 108.938 230.638 109.092 231.044C109.484 230.652 109.862 230.204 110.24 229.728V237.246H111.822V227.348C112.13 226.816 112.41 226.284 112.662 225.738V227.026H116.176V228.006H112.956V232.094H116.078C115.994 232.668 115.84 233.186 115.56 233.69C115.042 233.27 114.594 232.794 114.258 232.248L112.9 232.668C113.376 233.466 113.936 234.18 114.622 234.754C114.02 235.216 113.194 235.58 112.074 235.832C112.41 236.182 112.9 236.854 113.11 237.218C114.356 236.854 115.308 236.336 115.98 235.72C117.282 236.462 118.878 236.952 120.768 237.19C120.978 236.756 121.412 236.07 121.762 235.706C119.872 235.538 118.262 235.146 116.974 234.53C117.394 233.788 117.632 232.962 117.744 232.094H121.16ZM124.002 230.078L124.73 231.898C125.92 231.394 128.72 230.232 130.344 230.232C131.562 230.232 132.346 230.96 132.346 232.01C132.346 233.914 129.994 234.768 126.788 234.852L127.53 236.574C131.982 236.294 134.208 234.572 134.208 232.038C134.208 229.924 132.724 228.608 130.512 228.608C128.818 228.608 126.438 229.406 125.486 229.7C125.066 229.826 124.422 229.994 124.002 230.078ZM136.297 226.368L136.479 228.286C138.103 227.936 140.959 227.628 142.275 227.488C141.337 228.202 140.203 229.798 140.203 231.814C140.203 234.838 142.975 236.42 145.901 236.616L146.559 234.698C144.193 234.572 142.037 233.732 142.037 231.436C142.037 229.77 143.297 227.95 144.991 227.502C145.733 227.334 146.937 227.334 147.693 227.32L147.679 225.528C146.699 225.556 145.159 225.654 143.717 225.766C141.155 225.99 138.845 226.2 137.683 226.298C137.403 226.326 136.857 226.354 136.297 226.368Z" fill="#95856F"/>
<path d="M40.632 525.43V527.236C41.052 527.208 41.654 527.194 42.13 527.194H46.708C47.198 527.194 47.744 527.208 48.22 527.236V525.43C47.744 525.5 47.184 525.542 46.708 525.542H42.13C41.654 525.542 41.08 525.5 40.632 525.43ZM39.008 529.014V530.848C39.4 530.82 39.946 530.792 40.352 530.792H44.202C44.146 531.968 43.908 533.018 43.334 533.886C42.774 534.712 41.794 535.51 40.8 535.888L42.438 537.078C43.684 536.448 44.762 535.37 45.252 534.39C45.756 533.41 46.064 532.234 46.148 530.792H49.522C49.914 530.792 50.446 530.806 50.796 530.834V529.014C50.432 529.07 49.816 529.098 49.522 529.098H40.352C39.918 529.098 39.428 529.07 39.008 529.014ZM49.06 524.464L47.94 524.926C48.318 525.458 48.752 526.298 49.046 526.872L50.166 526.382C49.9 525.864 49.41 524.982 49.06 524.464ZM50.712 523.834L49.606 524.296C49.984 524.828 50.432 525.64 50.726 526.228L51.846 525.738C51.594 525.248 51.076 524.366 50.712 523.834ZM63.438 525.108L62.5 525.416C62.766 525.976 63.018 526.746 63.214 527.334L64.18 527.026C64.026 526.48 63.704 525.668 63.438 525.108ZM64.88 524.66L63.928 524.968C64.222 525.514 64.488 526.27 64.684 526.872L65.65 526.564C65.468 526.032 65.146 525.22 64.88 524.66ZM62.234 530.022V529.56H63.284C64.012 529.56 64.502 529.574 64.81 529.602V527.74C64.432 527.81 64.012 527.838 63.27 527.838H62.234V526.368C62.234 525.808 62.29 525.36 62.332 525.066H60.33C60.372 525.346 60.414 525.808 60.414 526.368V527.838H57.096V526.466C57.096 525.906 57.152 525.458 57.18 525.192H55.192C55.234 525.626 55.276 526.046 55.276 526.452V527.838H54.086C53.386 527.838 52.826 527.754 52.574 527.712V529.616C52.882 529.602 53.386 529.56 54.086 529.56H55.276V531.464C55.276 532.094 55.234 532.654 55.192 532.934H57.152C57.138 532.654 57.096 532.094 57.096 531.464V529.56H60.414V530.092C60.414 533.536 59.224 534.74 56.522 535.692L58.02 537.106C61.408 535.608 62.234 533.494 62.234 530.022ZM67.288 529.518V531.716C67.806 531.674 68.744 531.646 69.542 531.646H77.06C77.648 531.646 78.362 531.702 78.698 531.716V529.518C78.334 529.546 77.718 529.602 77.06 529.602H69.542C68.814 529.602 67.792 529.56 67.288 529.518ZM84.396 534.656C84.396 535.216 84.34 536.056 84.256 536.616H86.44C86.384 536.042 86.314 535.062 86.314 534.656V530.694C87.826 531.212 89.926 532.024 91.368 532.78L92.166 530.848C90.878 530.218 88.19 529.224 86.314 528.678V526.606C86.314 526.032 86.384 525.416 86.44 524.926H84.256C84.354 525.416 84.396 526.116 84.396 526.606V534.656Z" fill="#95856F"/>
<path d="M47.226 281.282C47.268 280.68 47.282 280.106 47.282 279.588H49.368V281.282H47.226ZM49.368 276.27V278.104H47.282V276.27H49.368ZM40.436 280.834H43.222V281.59H40.436V280.834ZM40.436 278.93H43.222V279.686H40.436V278.93ZM51.006 274.758H45.7V279.588C45.7 281.044 45.63 282.836 45.014 284.418V283.564H42.606V282.808H44.748V277.726H42.606V276.97H45.028V275.514H42.606V274.142H40.982V275.514H38.588V276.97H40.982V277.726H38.98V282.808H40.982V283.564H38.504V285.034H40.982V287.19H42.606V285.034H44.748C44.51 285.496 44.216 285.944 43.852 286.336C44.244 286.518 44.916 286.952 45.196 287.232C46.274 286.056 46.806 284.418 47.058 282.794H49.368V285.286C49.368 285.51 49.298 285.566 49.088 285.58C48.878 285.594 48.206 285.594 47.59 285.552C47.814 286 48.038 286.742 48.094 287.204C49.144 287.204 49.844 287.176 50.348 286.896C50.838 286.63 51.006 286.154 51.006 285.328V274.758ZM55.92 281.898L54.072 281.73C53.974 282.262 53.806 282.934 53.806 283.746C53.806 285.678 55.416 286.756 58.622 286.756C60.582 286.756 62.262 286.56 63.48 286.266L63.466 284.306C62.234 284.642 60.442 284.852 58.552 284.852C56.536 284.852 55.682 284.222 55.682 283.312C55.682 282.85 55.78 282.402 55.92 281.898ZM62.976 274.52L61.87 274.968C62.066 275.248 62.276 275.598 62.472 275.962C61.394 276.06 59.882 276.144 58.552 276.144C57.082 276.144 55.78 276.088 54.744 275.962V277.824C55.878 277.908 57.096 277.978 58.566 277.978C59.896 277.978 61.632 277.88 62.612 277.81V276.242C62.738 276.48 62.864 276.718 62.962 276.928L64.096 276.438C63.83 275.92 63.326 275.024 62.976 274.52ZM64.642 273.89L63.522 274.338C63.914 274.87 64.362 275.682 64.656 276.27L65.776 275.794C65.524 275.304 65.006 274.408 64.642 273.89ZM72.636 284.18C72.636 283.648 73.168 283.312 73.966 283.312C74.344 283.312 74.722 283.368 75.086 283.466C75.086 283.564 75.086 283.648 75.086 283.718C75.086 284.544 74.792 284.992 73.938 284.992C73.196 284.992 72.636 284.754 72.636 284.18ZM76.794 275.038H74.792C74.848 275.318 74.89 275.752 74.89 275.962C74.89 276.256 74.904 276.83 74.904 277.516C74.582 277.53 74.246 277.53 73.924 277.53C73.084 277.53 72.272 277.488 71.474 277.404V279.07C72.3 279.126 73.098 279.154 73.924 279.154C74.246 279.154 74.582 279.154 74.918 279.14C74.932 280.134 74.988 281.156 75.016 282.024C74.736 281.982 74.428 281.968 74.106 281.968C72.202 281.968 70.998 282.948 70.998 284.362C70.998 285.832 72.202 286.644 74.134 286.644C76.024 286.644 76.78 285.692 76.864 284.348C77.424 284.726 77.984 285.216 78.572 285.762L79.538 284.292C78.866 283.676 77.984 282.962 76.822 282.486C76.766 281.534 76.696 280.414 76.668 279.056C77.438 279 78.166 278.916 78.838 278.818V277.068C78.166 277.208 77.438 277.32 76.668 277.39C76.682 276.774 76.696 276.256 76.71 275.948C76.724 275.64 76.752 275.304 76.794 275.038ZM69.962 275.192L68.03 275.024C68.016 275.472 67.946 276.004 67.89 276.396C67.736 277.474 67.316 280.12 67.316 282.234C67.316 284.138 67.582 285.734 67.876 286.714L69.458 286.588C69.444 286.392 69.43 286.154 69.43 286.014C69.43 285.86 69.458 285.552 69.5 285.356C69.668 284.6 70.116 283.172 70.508 282.024L69.654 281.324C69.444 281.8 69.206 282.276 69.024 282.766C68.982 282.486 68.968 282.136 68.968 281.856C68.968 280.456 69.43 277.376 69.64 276.438C69.682 276.186 69.85 275.472 69.962 275.192ZM88.078 275.598L86.09 274.8C85.852 275.388 85.586 275.85 85.404 276.228C84.662 277.558 81.792 283.27 80.756 286.07L82.73 286.742C82.94 286 83.43 284.432 83.794 283.62C84.298 282.486 85.082 281.506 86.034 281.506C86.538 281.506 86.818 281.8 86.86 282.29C86.902 282.864 86.888 284.012 86.944 284.754C87 285.776 87.728 286.7 89.282 286.7C91.424 286.7 92.726 285.104 93.454 282.71L91.942 281.478C91.536 283.214 90.794 284.782 89.576 284.782C89.114 284.782 88.722 284.572 88.666 284.026C88.596 283.438 88.638 282.318 88.61 281.688C88.554 280.526 87.924 279.868 86.874 279.868C86.342 279.868 85.782 279.994 85.264 280.288C85.964 279.056 86.944 277.264 87.63 276.256C87.784 276.032 87.938 275.794 88.078 275.598Z" fill="#95856F"/>
<path d="M44.944 574.73L43.124 574.688C43.138 574.926 43.11 575.262 43.096 575.528C43.068 575.766 43.04 576.018 43.012 576.284C42.83 576.284 42.648 576.284 42.452 576.284C41.598 576.284 40.366 576.172 39.876 576.088L39.918 577.712C40.576 577.74 41.668 577.796 42.396 577.796C42.55 577.796 42.69 577.796 42.844 577.796C42.788 578.37 42.746 578.958 42.718 579.56C40.758 580.484 39.274 582.36 39.274 584.166C39.274 585.58 40.142 586.196 41.164 586.196C41.906 586.196 42.648 585.972 43.334 585.636C43.39 585.832 43.46 586.028 43.516 586.21L45.126 585.72C45.014 585.384 44.902 585.034 44.804 584.684C45.868 583.802 46.988 582.332 47.744 580.428C48.71 580.806 49.2 581.548 49.2 582.388C49.2 583.76 48.108 585.132 45.406 585.426L46.33 586.896C49.774 586.378 50.936 584.46 50.936 582.472C50.936 580.848 49.858 579.574 48.234 579.042C48.318 578.776 48.43 578.482 48.486 578.328L46.778 577.922C46.764 578.132 46.708 578.482 46.652 578.762C46.568 578.762 46.484 578.762 46.4 578.762C45.714 578.762 44.986 578.86 44.314 579.014C44.328 578.594 44.37 578.16 44.412 577.74C46.134 577.67 48.01 577.502 49.382 577.25L49.368 575.626C47.828 575.99 46.316 576.172 44.608 576.242C44.65 575.962 44.706 575.71 44.748 575.472C44.804 575.262 44.86 575.01 44.944 574.73ZM40.926 583.802C40.926 583.004 41.626 581.94 42.676 581.226C42.704 582.192 42.816 583.158 42.97 584.026C42.466 584.32 41.962 584.488 41.57 584.488C41.122 584.488 40.926 584.25 40.926 583.802ZM44.258 580.54V580.498C44.804 580.33 45.448 580.204 46.19 580.19C45.714 581.324 45.084 582.178 44.426 582.864C44.314 582.164 44.258 581.394 44.258 580.54ZM56.368 574.646L56.102 576.27C57.768 576.55 60.386 576.858 61.856 576.97L62.08 575.332C60.624 575.234 57.936 574.94 56.368 574.646ZM62.57 579.098L61.548 577.936C61.394 577.992 61.016 578.062 60.75 578.09C59.588 578.244 56.41 578.384 55.752 578.384C55.234 578.398 54.73 578.37 54.408 578.342L54.576 580.274C54.87 580.232 55.29 580.162 55.78 580.12C56.578 580.05 58.258 579.896 59.238 579.868C57.964 581.212 55.094 584.068 54.38 584.796C54.002 585.16 53.666 585.454 53.414 585.664L55.066 586.826C56.032 585.594 57.082 584.446 57.558 583.956C57.894 583.62 58.188 583.396 58.482 583.396C58.762 583.396 59.07 583.578 59.224 584.068C59.322 584.418 59.49 585.076 59.63 585.496C59.98 586.406 60.694 586.7 62.024 586.7C62.752 586.7 64.194 586.602 64.768 586.49L64.88 584.656C64.18 584.796 63.214 584.908 62.136 584.908C61.59 584.908 61.282 584.684 61.156 584.25C61.03 583.886 60.876 583.354 60.75 582.976C60.568 582.458 60.316 582.15 59.91 582.024C59.756 581.968 59.504 581.912 59.378 581.926C59.714 581.562 61.016 580.358 61.66 579.812C61.912 579.602 62.206 579.35 62.57 579.098ZM71.0362 584.348C71.0362 583.998 71.3722 583.676 71.9042 583.676C72.6602 583.676 73.1782 584.264 73.2622 585.174C73.0102 585.202 72.7442 585.216 72.4502 585.216C71.6102 585.216 71.0362 584.866 71.0362 584.348ZM68.6562 575.332L68.7122 577.152C69.0342 577.11 69.4822 577.068 69.8602 577.04C70.6022 576.998 72.5342 576.914 73.2482 576.9C72.5622 577.502 71.1062 578.678 70.3222 579.322C69.4962 580.008 67.8022 581.436 66.8082 582.234L68.0822 583.55C69.5802 581.842 70.9802 580.708 73.1222 580.708C74.7742 580.708 76.0342 581.562 76.0342 582.822C76.0342 583.676 75.6422 584.32 74.8722 584.726C74.6762 583.396 73.6262 582.332 71.8902 582.332C70.4062 582.332 69.3842 583.382 69.3842 584.516C69.3842 585.916 70.8542 586.812 72.8002 586.812C76.1882 586.812 77.8682 585.062 77.8682 582.85C77.8682 580.806 76.0622 579.322 73.6822 579.322C73.2342 579.322 72.8142 579.364 72.3522 579.476C73.2342 578.776 74.7042 577.544 75.4602 577.012C75.7822 576.774 76.1182 576.578 76.4402 576.368L75.5302 575.122C75.3622 575.178 75.0402 575.22 74.4662 575.276C73.6682 575.346 70.6722 575.402 69.9302 575.402C69.5382 575.402 69.0482 575.388 68.6562 575.332ZM87.3742 582.738L85.6942 582.584C85.5822 583.13 85.4562 583.802 85.4562 584.46C85.4562 585.874 86.7302 586.686 89.0822 586.686C90.2022 586.686 91.1402 586.588 91.9382 586.476L92.0082 584.698C91.0002 584.88 90.0342 584.978 89.0962 584.978C87.5982 584.978 87.1782 584.516 87.1782 583.9C87.1782 583.592 87.2622 583.144 87.3742 582.738ZM85.7922 574.982L83.6502 574.814C83.6922 575.15 83.6642 575.724 83.6082 576.242C83.5802 576.466 83.5382 576.732 83.4822 577.04C83.0482 577.068 82.6282 577.082 82.2222 577.082C81.6342 577.082 81.1722 577.054 80.4582 576.97L80.5002 578.72C80.9902 578.748 81.5082 578.776 82.1942 578.776C82.4882 578.776 82.7962 578.762 83.1182 578.748C83.0202 579.14 82.9222 579.546 82.8242 579.924C82.3062 581.884 81.2422 584.81 80.4022 586.224L82.3482 586.882C83.1322 585.216 84.0562 582.36 84.5742 580.4C84.7282 579.826 84.8682 579.196 84.9942 578.594C85.9322 578.482 86.8842 578.328 87.7242 578.132V576.382C86.9542 576.564 86.1562 576.718 85.3722 576.83C85.4142 576.648 85.4562 576.466 85.4842 576.312C85.5402 576.004 85.6802 575.374 85.7922 574.982ZM86.6182 579.224V580.862C87.5002 580.75 88.3542 580.708 89.3202 580.708C90.1742 580.708 91.0282 580.806 91.7282 580.89L91.7702 579.21C90.9442 579.126 90.1042 579.084 89.3062 579.084C88.3962 579.084 87.4022 579.14 86.6182 579.224ZM90.2722 575.388L89.1662 575.85C89.5442 576.382 89.9782 577.222 90.2582 577.796L91.3782 577.306C91.1262 576.788 90.6222 575.906 90.2722 575.388ZM91.9242 574.758L90.8182 575.206C91.2102 575.738 91.6582 576.55 91.9522 577.138L93.0582 576.662C92.8202 576.172 92.3022 575.276 91.9242 574.758ZM104.468 574.87H102.438C102.494 575.094 102.564 575.486 102.592 575.836C102.62 576.214 102.634 576.942 102.648 577.726C102.116 577.74 101.57 577.754 101.066 577.754C100.324 577.754 99.6382 577.698 98.9522 577.6V579.378C99.6382 579.406 100.506 579.448 101.108 579.448C101.626 579.448 102.144 579.434 102.676 579.42C102.676 579.616 102.676 579.784 102.676 579.924C102.676 582.29 102.452 583.536 101.374 584.656C100.982 585.09 100.282 585.538 99.7502 585.776L101.36 587.05C104.16 585.272 104.412 583.242 104.412 579.938C104.412 579.798 104.412 579.588 104.412 579.35C105.196 579.308 105.924 579.252 106.484 579.182L106.498 577.362C105.924 577.474 105.182 577.558 104.398 577.614C104.398 576.844 104.398 576.116 104.398 575.822C104.412 575.514 104.426 575.178 104.468 574.87ZM97.5102 575.108L95.4382 574.898C95.4242 575.248 95.4102 575.724 95.3402 576.116C95.1722 577.25 94.8922 579.406 94.8922 581.702C94.8922 583.438 95.3822 585.398 95.6902 586.238L97.2442 586.084C97.2302 585.888 97.2162 585.65 97.2162 585.51C97.2162 585.342 97.2442 585.034 97.3002 584.824C97.4682 584.026 97.8462 582.612 98.2522 581.408L97.3842 580.848C97.1462 581.366 96.8942 582.038 96.7122 582.472C96.3342 580.736 96.8242 577.796 97.1742 576.242C97.2442 575.948 97.3842 575.444 97.5102 575.108ZM114.576 578.888C113.596 578.888 112.784 579.7 112.784 580.68C112.784 581.66 113.596 582.472 114.576 582.472C115.556 582.472 116.368 581.66 116.368 580.68C116.368 579.7 115.556 578.888 114.576 578.888ZM125.552 584.418C125.552 583.942 126.098 583.55 127.092 583.55C127.484 583.55 127.862 583.592 128.24 583.648C128.254 583.9 128.254 584.096 128.254 584.25C128.254 585.062 127.764 585.272 127.022 585.272C126.056 585.272 125.552 584.95 125.552 584.418ZM129.934 574.674H128.044C128.1 574.94 128.128 575.374 128.128 575.64C128.128 575.808 128.128 576.032 128.128 576.298C127.946 576.298 127.764 576.298 127.582 576.298C126.728 576.298 125.132 576.158 124.124 575.99L124.166 577.586C125.09 577.712 126.714 577.838 127.596 577.838C127.764 577.838 127.932 577.838 128.114 577.838C128.1 578.314 128.1 578.818 128.1 579.28C127.876 579.28 127.652 579.28 127.428 579.28C126.686 579.28 124.964 579.182 124.054 579.014L124.068 580.666C124.992 580.778 126.588 580.848 127.4 580.848C127.652 580.848 127.89 580.848 128.128 580.848C128.142 581.268 128.156 581.716 128.184 582.15C127.904 582.122 127.61 582.108 127.316 582.108C125.16 582.108 123.858 583.102 123.858 584.516C123.858 586 125.034 586.854 127.274 586.854C129.122 586.854 130.032 585.93 130.032 584.74C130.032 584.586 130.032 584.418 130.018 584.222C131.138 584.726 132.09 585.468 132.846 586.168L133.854 584.6C133.042 583.928 131.698 582.99 129.934 582.486C129.892 581.926 129.864 581.352 129.836 580.82C131.18 580.778 132.272 580.68 133.532 580.54L133.546 578.888C132.412 579.042 131.222 579.154 129.808 579.224C129.808 578.79 129.808 578.272 129.808 577.782C131.166 577.712 132.44 577.586 133.364 577.474L133.378 575.864C132.146 576.074 130.984 576.186 129.836 576.242C129.836 576.018 129.836 575.808 129.85 575.668C129.864 575.304 129.892 574.954 129.934 574.674ZM145.596 575.248H143.72C143.762 575.514 143.818 576.172 143.818 576.536V578.118C142.544 578.216 141.172 578.356 139.996 578.468C139.996 577.922 140.01 577.446 140.01 577.124C140.01 576.522 140.024 576.13 140.094 575.668H138.12C138.19 576.158 138.232 576.634 138.232 577.222C138.232 577.46 138.232 577.978 138.232 578.636C137.784 578.678 137.42 578.706 137.168 578.734C136.454 578.79 135.796 578.818 135.404 578.818L135.586 580.61C135.964 580.54 136.832 580.428 137.28 580.372C137.518 580.344 137.84 580.316 138.218 580.274C138.218 581.576 138.218 582.92 138.232 583.522C138.302 585.944 138.722 586.714 142.362 586.714C143.692 586.714 145.4 586.588 146.352 586.476L146.422 584.572C145.372 584.768 143.608 584.936 142.236 584.936C140.136 584.936 140.01 584.628 139.982 583.242C139.954 582.64 139.968 581.352 139.982 580.078C141.172 579.952 142.544 579.826 143.79 579.714C143.776 580.4 143.734 581.03 143.678 581.422C143.65 581.688 143.524 581.73 143.244 581.73C142.964 581.73 142.39 581.646 141.956 581.576L141.914 583.102C142.404 583.186 143.524 583.312 144.014 583.312C144.742 583.312 145.092 583.13 145.232 582.388C145.344 581.8 145.4 580.666 145.442 579.588C145.848 579.56 146.226 579.546 146.534 579.532C146.898 579.518 147.64 579.504 147.878 579.518V577.796C147.472 577.838 146.912 577.88 146.534 577.894C146.212 577.922 145.862 577.936 145.47 577.978C145.484 577.502 145.498 577.012 145.512 576.452C145.526 576.088 145.568 575.458 145.596 575.248ZM146.688 575.29L145.736 575.598C146.016 576.158 146.254 576.928 146.45 577.53L147.416 577.208C147.262 576.662 146.94 575.85 146.688 575.29ZM148.13 574.814L147.178 575.108C147.458 575.668 147.724 576.424 147.934 577.026L148.886 576.718C148.718 576.186 148.396 575.36 148.13 574.814ZM154.612 584.348C154.612 583.998 154.948 583.676 155.48 583.676C156.236 583.676 156.754 584.264 156.838 585.174C156.586 585.202 156.32 585.216 156.026 585.216C155.186 585.216 154.612 584.866 154.612 584.348ZM152.232 575.332L152.288 577.152C152.61 577.11 153.058 577.068 153.436 577.04C154.178 576.998 156.11 576.914 156.824 576.9C156.138 577.502 154.682 578.678 153.898 579.322C153.072 580.008 151.378 581.436 150.384 582.234L151.658 583.55C153.156 581.842 154.556 580.708 156.698 580.708C158.35 580.708 159.61 581.562 159.61 582.822C159.61 583.676 159.218 584.32 158.448 584.726C158.252 583.396 157.202 582.332 155.466 582.332C153.982 582.332 152.96 583.382 152.96 584.516C152.96 585.916 154.43 586.812 156.376 586.812C159.764 586.812 161.444 585.062 161.444 582.85C161.444 580.806 159.638 579.322 157.258 579.322C156.81 579.322 156.39 579.364 155.928 579.476C156.81 578.776 158.28 577.544 159.036 577.012C159.358 576.774 159.694 576.578 160.016 576.368L159.106 575.122C158.938 575.178 158.616 575.22 158.042 575.276C157.244 575.346 154.248 575.402 153.506 575.402C153.114 575.402 152.624 575.388 152.232 575.332ZM170.95 582.738L169.27 582.584C169.158 583.13 169.032 583.802 169.032 584.46C169.032 585.874 170.306 586.686 172.658 586.686C173.778 586.686 174.716 586.588 175.514 586.476L175.584 584.698C174.576 584.88 173.61 584.978 172.672 584.978C171.174 584.978 170.754 584.516 170.754 583.9C170.754 583.592 170.838 583.144 170.95 582.738ZM169.368 574.982L167.226 574.814C167.268 575.15 167.24 575.724 167.184 576.242C167.156 576.466 167.114 576.732 167.058 577.04C166.624 577.068 166.204 577.082 165.798 577.082C165.21 577.082 164.748 577.054 164.034 576.97L164.076 578.72C164.566 578.748 165.084 578.776 165.77 578.776C166.064 578.776 166.372 578.762 166.694 578.748C166.596 579.14 166.498 579.546 166.4 579.924C165.882 581.884 164.818 584.81 163.978 586.224L165.924 586.882C166.708 585.216 167.632 582.36 168.15 580.4C168.304 579.826 168.444 579.196 168.57 578.594C169.508 578.482 170.46 578.328 171.3 578.132V576.382C170.53 576.564 169.732 576.718 168.948 576.83C168.99 576.648 169.032 576.466 169.06 576.312C169.116 576.004 169.256 575.374 169.368 574.982ZM170.194 579.224V580.862C171.076 580.75 171.93 580.708 172.896 580.708C173.75 580.708 174.604 580.806 175.304 580.89L175.346 579.21C174.52 579.126 173.68 579.084 172.882 579.084C171.972 579.084 170.978 579.14 170.194 579.224ZM173.848 575.388L172.742 575.85C173.12 576.382 173.554 577.222 173.834 577.796L174.954 577.306C174.702 576.788 174.198 575.906 173.848 575.388ZM175.5 574.758L174.394 575.206C174.786 575.738 175.234 576.55 175.528 577.138L176.634 576.662C176.396 576.172 175.878 575.276 175.5 574.758ZM188.044 574.87H186.014C186.07 575.094 186.14 575.486 186.168 575.836C186.196 576.214 186.21 576.942 186.224 577.726C185.692 577.74 185.146 577.754 184.642 577.754C183.9 577.754 183.214 577.698 182.528 577.6V579.378C183.214 579.406 184.082 579.448 184.684 579.448C185.202 579.448 185.72 579.434 186.252 579.42C186.252 579.616 186.252 579.784 186.252 579.924C186.252 582.29 186.028 583.536 184.95 584.656C184.558 585.09 183.858 585.538 183.326 585.776L184.936 587.05C187.736 585.272 187.988 583.242 187.988 579.938C187.988 579.798 187.988 579.588 187.988 579.35C188.772 579.308 189.5 579.252 190.06 579.182L190.074 577.362C189.5 577.474 188.758 577.558 187.974 577.614C187.974 576.844 187.974 576.116 187.974 575.822C187.988 575.514 188.002 575.178 188.044 574.87ZM181.086 575.108L179.014 574.898C179 575.248 178.986 575.724 178.916 576.116C178.748 577.25 178.468 579.406 178.468 581.702C178.468 583.438 178.958 585.398 179.266 586.238L180.82 586.084C180.806 585.888 180.792 585.65 180.792 585.51C180.792 585.342 180.82 585.034 180.876 584.824C181.044 584.026 181.422 582.612 181.828 581.408L180.96 580.848C180.722 581.366 180.47 582.038 180.288 582.472C179.91 580.736 180.4 577.796 180.75 576.242C180.82 575.948 180.96 575.444 181.086 575.108Z" fill="#95856F"/>
<path d="M39.148 336.784H50.95V335.272H39.148V336.784ZM46.806 331.422H43.25V330.596H46.806V331.422ZM46.806 333.354H43.25V332.514H46.806V333.354ZM41.948 326.172H48.472V327.236H41.934C41.948 327.068 41.948 326.9 41.948 326.732V326.172ZM50.166 328.636V324.786H40.296V326.718C40.296 328.566 40.128 331.226 38.336 333.088C38.672 333.298 39.344 333.942 39.582 334.264C41.038 332.752 41.626 330.554 41.85 328.636H47.254C47.324 328.902 47.394 329.168 47.478 329.434H41.738V334.53H48.388V331.688C48.934 332.724 49.606 333.592 50.446 334.222C50.712 333.774 51.258 333.116 51.664 332.78C50.376 331.954 49.452 330.372 48.906 328.636H50.166ZM55.92 331.898L54.072 331.73C53.974 332.262 53.806 332.934 53.806 333.746C53.806 335.678 55.416 336.756 58.622 336.756C60.582 336.756 62.262 336.56 63.48 336.266L63.466 334.306C62.234 334.642 60.442 334.852 58.552 334.852C56.536 334.852 55.682 334.222 55.682 333.312C55.682 332.85 55.78 332.402 55.92 331.898ZM62.976 324.52L61.87 324.968C62.066 325.248 62.276 325.598 62.472 325.962C61.394 326.06 59.882 326.144 58.552 326.144C57.082 326.144 55.78 326.088 54.744 325.962V327.824C55.878 327.908 57.096 327.978 58.566 327.978C59.896 327.978 61.632 327.88 62.612 327.81V326.242C62.738 326.48 62.864 326.718 62.962 326.928L64.096 326.438C63.83 325.92 63.326 325.024 62.976 324.52ZM64.642 323.89L63.522 324.338C63.914 324.87 64.362 325.682 64.656 326.27L65.776 325.794C65.524 325.304 65.006 324.408 64.642 323.89ZM72.636 334.18C72.636 333.648 73.168 333.312 73.966 333.312C74.344 333.312 74.722 333.368 75.086 333.466C75.086 333.564 75.086 333.648 75.086 333.718C75.086 334.544 74.792 334.992 73.938 334.992C73.196 334.992 72.636 334.754 72.636 334.18ZM76.794 325.038H74.792C74.848 325.318 74.89 325.752 74.89 325.962C74.89 326.256 74.904 326.83 74.904 327.516C74.582 327.53 74.246 327.53 73.924 327.53C73.084 327.53 72.272 327.488 71.474 327.404V329.07C72.3 329.126 73.098 329.154 73.924 329.154C74.246 329.154 74.582 329.154 74.918 329.14C74.932 330.134 74.988 331.156 75.016 332.024C74.736 331.982 74.428 331.968 74.106 331.968C72.202 331.968 70.998 332.948 70.998 334.362C70.998 335.832 72.202 336.644 74.134 336.644C76.024 336.644 76.78 335.692 76.864 334.348C77.424 334.726 77.984 335.216 78.572 335.762L79.538 334.292C78.866 333.676 77.984 332.962 76.822 332.486C76.766 331.534 76.696 330.414 76.668 329.056C77.438 329 78.166 328.916 78.838 328.818V327.068C78.166 327.208 77.438 327.32 76.668 327.39C76.682 326.774 76.696 326.256 76.71 325.948C76.724 325.64 76.752 325.304 76.794 325.038ZM69.962 325.192L68.03 325.024C68.016 325.472 67.946 326.004 67.89 326.396C67.736 327.474 67.316 330.12 67.316 332.234C67.316 334.138 67.582 335.734 67.876 336.714L69.458 336.588C69.444 336.392 69.43 336.154 69.43 336.014C69.43 335.86 69.458 335.552 69.5 335.356C69.668 334.6 70.116 333.172 70.508 332.024L69.654 331.324C69.444 331.8 69.206 332.276 69.024 332.766C68.982 332.486 68.968 332.136 68.968 331.856C68.968 330.456 69.43 327.376 69.64 326.438C69.682 326.186 69.85 325.472 69.962 325.192ZM88.078 325.598L86.09 324.8C85.852 325.388 85.586 325.85 85.404 326.228C84.662 327.558 81.792 333.27 80.756 336.07L82.73 336.742C82.94 336 83.43 334.432 83.794 333.62C84.298 332.486 85.082 331.506 86.034 331.506C86.538 331.506 86.818 331.8 86.86 332.29C86.902 332.864 86.888 334.012 86.944 334.754C87 335.776 87.728 336.7 89.282 336.7C91.424 336.7 92.726 335.104 93.454 332.71L91.942 331.478C91.536 333.214 90.794 334.782 89.576 334.782C89.114 334.782 88.722 334.572 88.666 334.026C88.596 333.438 88.638 332.318 88.61 331.688C88.554 330.526 87.924 329.868 86.874 329.868C86.342 329.868 85.782 329.994 85.264 330.288C85.964 329.056 86.944 327.264 87.63 326.256C87.784 326.032 87.938 325.794 88.078 325.598Z" fill="#95856F"/>
<path d="M44.468 624.94L42.382 624.73C42.396 625.612 42.284 626.634 42.088 627.698C41.374 627.754 40.716 627.796 40.282 627.81C39.764 627.824 39.288 627.852 38.784 627.81L38.952 629.714C39.372 629.644 40.114 629.546 40.506 629.476C40.772 629.448 41.206 629.392 41.71 629.336C41.206 631.254 40.24 634.082 38.882 635.916L40.702 636.644C41.99 634.586 43.026 631.268 43.558 629.14C43.95 629.112 44.3 629.084 44.524 629.084C45.406 629.084 45.882 629.238 45.882 630.358C45.882 631.744 45.7 633.438 45.322 634.236C45.098 634.698 44.734 634.838 44.272 634.838C43.894 634.838 43.096 634.698 42.55 634.544L42.858 636.392C43.334 636.49 43.992 636.588 44.538 636.588C45.588 636.588 46.372 636.28 46.834 635.3C47.436 634.082 47.632 631.814 47.632 630.162C47.632 628.146 46.582 627.488 45.098 627.488C44.804 627.488 44.384 627.516 43.922 627.544C44.02 627.04 44.118 626.522 44.216 626.102C44.286 625.752 44.384 625.304 44.468 624.94ZM49.284 626.256L47.618 626.97C48.612 628.202 49.606 630.736 49.97 632.29L51.748 631.464C51.328 630.134 50.152 627.46 49.284 626.256ZM60.078 625.598L58.09 624.8C57.852 625.388 57.586 625.85 57.404 626.228C56.662 627.558 53.792 633.27 52.756 636.07L54.73 636.742C54.94 636 55.43 634.432 55.794 633.62C56.298 632.486 57.082 631.506 58.034 631.506C58.538 631.506 58.818 631.8 58.86 632.29C58.902 632.864 58.888 634.012 58.944 634.754C59 635.776 59.728 636.7 61.282 636.7C63.424 636.7 64.726 635.104 65.454 632.71L63.942 631.478C63.536 633.214 62.794 634.782 61.576 634.782C61.114 634.782 60.722 634.572 60.666 634.026C60.596 633.438 60.638 632.318 60.61 631.688C60.554 630.526 59.924 629.868 58.874 629.868C58.342 629.868 57.782 629.994 57.264 630.288C57.964 629.056 58.944 627.264 59.63 626.256C59.784 626.032 59.938 625.794 60.078 625.598ZM74.218 632.584L72.552 632.416C72.44 632.976 72.3 633.648 72.3 634.292C72.3 635.706 73.574 636.518 75.926 636.518C77.046 636.518 77.998 636.42 78.782 636.322L78.852 634.53C77.844 634.712 76.878 634.824 75.94 634.824C74.442 634.824 74.022 634.362 74.022 633.746C74.022 633.438 74.106 632.976 74.218 632.584ZM72.636 624.828L70.494 624.66C70.536 624.982 70.508 625.556 70.452 626.074C70.424 626.298 70.382 626.564 70.326 626.872C69.892 626.9 69.472 626.914 69.066 626.914C68.492 626.914 68.016 626.886 67.302 626.802L67.344 628.552C67.834 628.58 68.366 628.608 69.038 628.608C69.332 628.608 69.64 628.594 69.962 628.58C69.878 628.986 69.766 629.378 69.668 629.756C69.15 631.716 68.086 634.656 67.246 636.056L69.192 636.714C69.976 635.048 70.914 632.192 71.418 630.232C71.572 629.658 71.712 629.042 71.838 628.44C72.776 628.328 73.728 628.174 74.568 627.978V626.228C73.798 626.41 73.014 626.564 72.23 626.676C72.272 626.48 72.314 626.298 72.342 626.144C72.398 625.836 72.524 625.206 72.636 624.828ZM73.462 629.056V630.694C74.344 630.596 75.212 630.554 76.164 630.554C77.018 630.554 77.872 630.638 78.572 630.722L78.614 629.042C77.788 628.958 76.948 628.916 76.15 628.916C75.254 628.916 74.246 628.986 73.462 629.056ZM88.078 625.598L86.09 624.8C85.852 625.388 85.586 625.85 85.404 626.228C84.662 627.558 81.792 633.27 80.756 636.07L82.73 636.742C82.94 636 83.43 634.432 83.794 633.62C84.298 632.486 85.082 631.506 86.034 631.506C86.538 631.506 86.818 631.8 86.86 632.29C86.902 632.864 86.888 634.012 86.944 634.754C87 635.776 87.728 636.7 89.282 636.7C91.424 636.7 92.726 635.104 93.454 632.71L91.942 631.478C91.536 633.214 90.794 634.782 89.576 634.782C89.114 634.782 88.722 634.572 88.666 634.026C88.596 633.438 88.638 632.318 88.61 631.688C88.554 630.526 87.924 629.868 86.874 629.868C86.342 629.868 85.782 629.994 85.264 630.288C85.964 629.056 86.944 627.264 87.63 626.256C87.784 626.032 87.938 625.794 88.078 625.598Z" fill="#95856F"/>
<path d="M47.66 376.732C47.478 377.068 47.282 377.418 47.086 377.698H45.112C45.364 377.39 45.602 377.068 45.812 376.732H47.66ZM49.578 380.876H48.108V379.098H49.578V380.876ZM45.266 380.876V379.098H46.638V380.876H45.266ZM40.422 383.116V380.554H41.598V383.116H40.422ZM41.598 376.648V379.112H40.422V376.648H41.598ZM49.438 385.65C49.214 385.65 49.186 385.608 49.186 385.216V382.276H51.118V377.698H48.71C49.102 377.138 49.508 376.494 49.774 375.948L48.738 375.304L48.5 375.36H46.596C46.75 375.038 46.89 374.73 47.016 374.408L45.392 374.156C44.972 375.276 44.244 376.536 43.096 377.572V375.192H38.952V385.65H40.422V384.572H43.096V378.328C43.348 378.566 43.614 378.832 43.768 379.07L43.81 379.028V382.276H45.182C45.014 384.012 44.538 385.244 42.13 385.93C42.452 386.238 42.872 386.84 43.026 387.246C45.882 386.294 46.512 384.6 46.75 382.276H47.618V385.23C47.618 386.644 47.898 387.106 49.158 387.106H50.18C51.202 387.106 51.58 386.602 51.72 384.614C51.3 384.488 50.628 384.236 50.334 383.97C50.292 385.44 50.25 385.65 49.998 385.65H49.438ZM55.92 381.898L54.072 381.73C53.974 382.262 53.806 382.934 53.806 383.746C53.806 385.678 55.416 386.756 58.622 386.756C60.582 386.756 62.262 386.56 63.48 386.266L63.466 384.306C62.234 384.642 60.442 384.852 58.552 384.852C56.536 384.852 55.682 384.222 55.682 383.312C55.682 382.85 55.78 382.402 55.92 381.898ZM62.976 374.52L61.87 374.968C62.066 375.248 62.276 375.598 62.472 375.962C61.394 376.06 59.882 376.144 58.552 376.144C57.082 376.144 55.78 376.088 54.744 375.962V377.824C55.878 377.908 57.096 377.978 58.566 377.978C59.896 377.978 61.632 377.88 62.612 377.81V376.242C62.738 376.48 62.864 376.718 62.962 376.928L64.096 376.438C63.83 375.92 63.326 375.024 62.976 374.52ZM64.642 373.89L63.522 374.338C63.914 374.87 64.362 375.682 64.656 376.27L65.776 375.794C65.524 375.304 65.006 374.408 64.642 373.89ZM72.636 384.18C72.636 383.648 73.168 383.312 73.966 383.312C74.344 383.312 74.722 383.368 75.086 383.466C75.086 383.564 75.086 383.648 75.086 383.718C75.086 384.544 74.792 384.992 73.938 384.992C73.196 384.992 72.636 384.754 72.636 384.18ZM76.794 375.038H74.792C74.848 375.318 74.89 375.752 74.89 375.962C74.89 376.256 74.904 376.83 74.904 377.516C74.582 377.53 74.246 377.53 73.924 377.53C73.084 377.53 72.272 377.488 71.474 377.404V379.07C72.3 379.126 73.098 379.154 73.924 379.154C74.246 379.154 74.582 379.154 74.918 379.14C74.932 380.134 74.988 381.156 75.016 382.024C74.736 381.982 74.428 381.968 74.106 381.968C72.202 381.968 70.998 382.948 70.998 384.362C70.998 385.832 72.202 386.644 74.134 386.644C76.024 386.644 76.78 385.692 76.864 384.348C77.424 384.726 77.984 385.216 78.572 385.762L79.538 384.292C78.866 383.676 77.984 382.962 76.822 382.486C76.766 381.534 76.696 380.414 76.668 379.056C77.438 379 78.166 378.916 78.838 378.818V377.068C78.166 377.208 77.438 377.32 76.668 377.39C76.682 376.774 76.696 376.256 76.71 375.948C76.724 375.64 76.752 375.304 76.794 375.038ZM69.962 375.192L68.03 375.024C68.016 375.472 67.946 376.004 67.89 376.396C67.736 377.474 67.316 380.12 67.316 382.234C67.316 384.138 67.582 385.734 67.876 386.714L69.458 386.588C69.444 386.392 69.43 386.154 69.43 386.014C69.43 385.86 69.458 385.552 69.5 385.356C69.668 384.6 70.116 383.172 70.508 382.024L69.654 381.324C69.444 381.8 69.206 382.276 69.024 382.766C68.982 382.486 68.968 382.136 68.968 381.856C68.968 380.456 69.43 377.376 69.64 376.438C69.682 376.186 69.85 375.472 69.962 375.192ZM88.078 375.598L86.09 374.8C85.852 375.388 85.586 375.85 85.404 376.228C84.662 377.558 81.792 383.27 80.756 386.07L82.73 386.742C82.94 386 83.43 384.432 83.794 383.62C84.298 382.486 85.082 381.506 86.034 381.506C86.538 381.506 86.818 381.8 86.86 382.29C86.902 382.864 86.888 384.012 86.944 384.754C87 385.776 87.728 386.7 89.282 386.7C91.424 386.7 92.726 385.104 93.454 382.71L91.942 381.478C91.536 383.214 90.794 384.782 89.576 384.782C89.114 384.782 88.722 384.572 88.666 384.026C88.596 383.438 88.638 382.318 88.61 381.688C88.554 380.526 87.924 379.868 86.874 379.868C86.342 379.868 85.782 379.994 85.264 380.288C85.964 379.056 86.944 377.264 87.63 376.256C87.784 376.032 87.938 375.794 88.078 375.598Z" fill="#95856F"/>
<path d="M42.83 679.84H44.86V678.3H42.83V676.158C43.572 675.99 44.3 675.794 44.916 675.57L43.838 674.268C42.564 674.772 40.52 675.22 38.7 675.472C38.882 675.836 39.078 676.396 39.148 676.774C39.792 676.69 40.464 676.592 41.15 676.48V678.3H38.658V679.84H40.744C40.198 681.38 39.302 682.99 38.35 683.998C38.63 684.418 39.036 685.076 39.19 685.566C39.932 684.74 40.59 683.536 41.15 682.22V687.204H42.83V682.038C43.292 682.696 43.74 683.396 44.006 683.872L44.958 682.486C44.65 682.108 43.39 680.638 42.83 680.078V679.84ZM46.862 683.844V677.054H49.102V683.844H46.862ZM45.224 675.458V686.546H46.862V685.44H49.102V686.448H50.824V675.458H45.224ZM57.236 681.926V680.386H58.146V681.926H57.236ZM60.498 680.386V681.926H59.588V680.386H60.498ZM60.162 683.62C60.316 683.886 60.456 684.18 60.596 684.488L59.588 684.558V683.186H61.856V679.126H59.588V678.132C60.526 678.02 61.422 677.866 62.178 677.656L61.086 676.466C59.77 676.83 57.572 677.054 55.64 677.166C55.794 677.488 55.99 678.062 56.046 678.398C56.718 678.37 57.432 678.342 58.146 678.272V679.126H55.976V683.186H58.146V684.642C57.082 684.712 56.116 684.768 55.346 684.796L55.458 686.294C56.998 686.168 59.084 686 61.114 685.818C61.226 686.168 61.31 686.49 61.366 686.77L62.724 686.322C62.556 685.468 61.996 684.18 61.422 683.214L60.162 683.62ZM53.918 674.702V679.574C53.918 681.674 53.792 684.474 52.378 686.364C52.756 686.532 53.442 686.98 53.722 687.26C55.276 685.216 55.5 681.898 55.5 679.574V676.256H62.374C62.374 682.22 62.402 687.218 64.432 687.218C65.286 687.218 65.608 686.448 65.762 684.754C65.468 684.446 65.104 683.9 64.838 683.452C64.824 684.558 64.726 685.412 64.6 685.412C63.928 685.412 63.928 680.204 63.998 674.702H53.918Z" fill="#95856F"/>
<path d="M266.5 122L272.5 128L266.5 134" stroke="#95856F" stroke-width="2" stroke-linecap="round" stroke-linejoin="round"/>
<path d="M266 174L272 180L266 186" stroke="#95856F" stroke-width="2" stroke-linecap="round" stroke-linejoin="round"/>
<path d="M266 224L272 230L266 236" stroke="#95856F" stroke-width="2" stroke-linecap="round" stroke-linejoin="round"/>
<path d="M266 268L272 274L266 280" stroke="#95856F" stroke-width="2" stroke-linecap="round" stroke-linejoin="round"/>
<path d="M266 324L272 330L266 336" stroke="#95856F" stroke-width="2" stroke-linecap="round" stroke-linejoin="round"/>
<path d="M266 374L272 380L266 386" stroke="#95856F" stroke-width="2" stroke-linecap="round" stroke-linejoin="round"/>
<path d="M266 424L272 430L266 436" stroke="#95856F" stroke-width="2" stroke-linecap="round" stroke-linejoin="round"/>
<path d="M266 474L272 480L266 486" stroke="#95856F" stroke-width="2" stroke-linecap="round" stroke-linejoin="round"/>
<path d="M266 524L272 530L266 536" stroke="#95856F" stroke-width="2" stroke-linecap="round" stroke-linejoin="round"/>
<path d="M266 574L272 580L266 586" stroke="#95856F" stroke-width="2" stroke-linecap="round" stroke-linejoin="round"/>
<path d="M266 624L272 630L266 636" stroke="#95856F" stroke-width="2" stroke-linecap="round" stroke-linejoin="round"/>
<path d="M266 674L272 680L266 686" stroke="#95856F" stroke-width="2" stroke-linecap="round" stroke-linejoin="round"/>
</g>
<defs>
<filter id="filter0_d" x="0" y="0" width="308" height="718" filterUnits="userSpaceOnUse" color-interpolation-filters="sRGB">
<feFlood flood-opacity="0" result="BackgroundImageFix"/>
<feColorMatrix in="SourceAlpha" type="matrix" values="0 0 0 0 0 0 0 0 0 0 0 0 0 0 0 0 0 0 127 0" result="hardAlpha"/>
<feOffset dy="4"/>
<feGaussianBlur stdDeviation="4.5"/>
<feComposite in2="hardAlpha" operator="out"/>
<feColorMatrix type="matrix" values="0 0 0 0 0.637457 0 0 0 0 0.637457 0 0 0 0 0.637457 0 0 0 0.25 0"/>
<feBlend mode="normal" in2="BackgroundImageFix" result="effect1_dropShadow"/>
<feBlend mode="normal" in="SourceGraphic" in2="effect1_dropShadow" result="shape"/>
</filter>
</defs>
</svg>
